HIERARCHY
ROOT SpineBase
{
  OFFSET 0.000000 0.000000 0.000000
  CHANNELS 6 Xposition Yposition Zposition Zrotation Xrotation Yrotation
  JOINT SpineMid
  {
    OFFSET -0.000000 28.223238 0.000000
    CHANNELS 3 Zrotation Xrotation Yrotation
    JOINT SpineShoulder
    {
      OFFSET 0.002164 20.873056 -0.710468
      CHANNELS 3 Zrotation Xrotation Yrotation
      JOINT Neck
      {
        OFFSET -0.052475 6.923591 -0.550195
        CHANNELS 3 Zrotation Xrotation Yrotation
        JOINT Head
        {
          OFFSET 6.729498 9.107997 3.595410
          CHANNELS 3 Zrotation Xrotation Yrotation
          End Site
          {
            OFFSET 0 0 0
          }
        }
      }
      JOINT ShoulderLeft
      {
        OFFSET -6.526615 -4.276450 -13.649588
        CHANNELS 3 Zrotation Xrotation Yrotation
        JOINT ElbowLeft
        {
          OFFSET -9.189299 -23.307978 -4.149784
          CHANNELS 3 Zrotation Xrotation Yrotation
          JOINT WristLeft
          {
            OFFSET -1.858064 -19.899869 1.697202
            CHANNELS 3 Zrotation Xrotation Yrotation
            JOINT HandLeft
            {
              OFFSET -0.344180 -5.225571 2.331179
              CHANNELS 3 Zrotation Xrotation Yrotation
              JOINT HandTipLeft
              {
                OFFSET -2.110035 -7.825369 1.185097
                CHANNELS 3 Zrotation Xrotation Yrotation
                End Site
                {
                  OFFSET 0 0 0
                }
              }
              JOINT ThumbLeft
              {
                OFFSET 3.477243 -0.798826 -0.053176
                CHANNELS 3 Zrotation Xrotation Yrotation
                End Site
                {
                  OFFSET 0 0 0
                }
              }
            }
          }
        }
      }
      JOINT ShoulderRight
      {
        OFFSET 9.092731 -4.307276 15.595681
        CHANNELS 3 Zrotation Xrotation Yrotation
        JOINT ElbowRight
        {
          OFFSET 7.709617 -16.220138 13.167142
          CHANNELS 3 Zrotation Xrotation Yrotation
          JOINT WristRight
          {
            OFFSET -14.797006 -15.507732 -16.840787
            CHANNELS 3 Zrotation Xrotation Yrotation
            JOINT HandRight
            {
              OFFSET -0.418316 -6.151540 2.628651
              CHANNELS 3 Zrotation Xrotation Yrotation
              JOINT HandTipRight
              {
                OFFSET -0.506405 -2.872105 -0.329829
                CHANNELS 3 Zrotation Xrotation Yrotation
                End Site
                {
                  OFFSET 0 0 0
                }
              }
              JOINT ThumbRight
              {
                OFFSET -1.665215 0.085252 -3.079610
                CHANNELS 3 Zrotation Xrotation Yrotation
                End Site
                {
                  OFFSET 0 0 0
                }
              }
            }
          }
        }
      }
    }
  }
  JOINT HipLeft
  {
    OFFSET -3.203750 0.931272 -9.104315
    CHANNELS 3 Zrotation Xrotation Yrotation
    JOINT KneeLeft
    {
      OFFSET -10.193512 -42.610508 3.192730
      CHANNELS 3 Zrotation Xrotation Yrotation
      JOINT AnkleLeft
      {
        OFFSET -8.553102 -33.991887 2.961865
        CHANNELS 3 Zrotation Xrotation Yrotation
        JOINT FootLeft
        {
          OFFSET 6.210593 -5.259179 0.221559
          CHANNELS 3 Zrotation Xrotation Yrotation
          End Site
          {
            OFFSET 0 0 0
          }
        }
      }
    }
  }
  JOINT HipRight
  {
    OFFSET 2.763370 0.851186 2.300236
    CHANNELS 3 Zrotation Xrotation Yrotation
    JOINT KneeRight
    {
      OFFSET 0.376831 -33.718411 3.634123
      CHANNELS 3 Zrotation Xrotation Yrotation
      JOINT AnkleRight
      {
        OFFSET -11.823088 -38.643775 16.512988
        CHANNELS 3 Zrotation Xrotation Yrotation
        JOINT FootRight
        {
          OFFSET -2.658776 -6.640849 -11.057210
          CHANNELS 3 Zrotation Xrotation Yrotation
          End Site
          {
            OFFSET 0 0 0
          }
        }
      }
    }
  }
}
MOTION
Frames: 15
Frame Time: 0.033333
21.651024 81.328300 322.462967 -0.000000 0.000000 -62.380413 -0.000000 0.000000 62.380413 -0.000000 0.000000 0.000000 -0.000000 0.000000 0.000000 0.000000 0.000000 0.000000 -0.000000 0.000000 0.000000 -0.000000 0.000000 0.000000 -0.000000 0.000000 0.000000 -0.000000 0.000000 0.000000 0.000000 0.000000 0.000000 0.000000 0.000000 0.000000 -0.000000 0.000000 0.000000 -0.000000 0.000000 0.000000 -0.000000 0.000000 0.000000 -0.000000 0.000000 0.000000 0.000000 0.000000 0.000000 0.000000 0.000000 0.000000 -0.000000 0.000000 62.380413 -0.000000 0.000000 0.000000 -0.000000 0.000000 0.000000 0.000000 0.000000 0.000000 -0.000000 0.000000 62.380413 -0.000000 0.000000 0.000000 -0.000000 0.000000 0.000000 0.000000 0.000000 0.000000
21.652879 81.321953 322.472446 0.013932 -0.019054 -62.510654 -0.023333 -0.003564 62.510655 -0.000000 0.000000 0.000000 -0.000000 0.000000 0.000000 0.000000 0.000000 0.000000 -0.000000 0.000000 0.000000 -0.000000 0.000000 0.000000 -0.000000 0.000000 0.000000 0.767225 0.508050 -0.024261 0.000000 0.000000 0.000000 0.000000 0.000000 0.000000 -0.000000 0.000000 0.000000 -0.000000 0.000000 0.000000 -0.000000 0.000000 0.000000 -0.000000 0.000000 0.000000 0.000000 0.000000 0.000000 0.000000 0.000000 0.000000 -0.023333 -0.003564 62.510655 -0.000000 0.000000 0.000000 -0.000000 0.000000 0.000000 0.000000 0.000000 0.000000 -0.023333 -0.003564 62.510655 -0.000000 0.000000 0.000000 2.000800 -1.054640 -2.956390 0.000000 0.000000 0.000000
21.654431 81.322746 322.482690 0.026978 -0.036752 -62.655358 -0.045038 -0.007082 62.655364 -0.000000 0.000000 0.000000 -0.000000 0.000000 0.000000 0.000000 0.000000 0.000000 -0.000000 0.000000 0.000000 -0.000000 0.000000 0.000000 -0.000000 0.000000 0.000000 1.384525 0.962559 -0.061775 0.000000 0.000000 0.000000 0.000000 0.000000 0.000000 -0.000000 0.000000 0.000000 -0.000000 0.000000 0.000000 -0.000000 0.000000 0.000000 -0.000000 0.000000 0.000000 0.000000 0.000000 0.000000 0.000000 0.000000 0.000000 -0.045038 -0.007082 62.655364 -0.000000 0.000000 0.000000 -0.000000 0.000000 0.000000 0.000000 0.000000 0.000000 -0.045038 -0.007082 62.655364 -0.000000 0.000000 0.000000 3.661621 -2.112243 -5.417235 0.000000 0.000000 0.000000
21.655678 81.330679 322.493699 0.039145 -0.053105 -62.814227 -0.065123 -0.010559 62.814239 -0.000000 0.000000 0.000000 -0.500314 0.608474 -0.248100 0.000000 0.000000 0.000000 -0.000000 0.000000 0.000000 -0.000000 0.000000 0.000000 0.251576 0.891958 0.051710 1.586375 0.462424 -0.136555 0.000000 0.000000 0.000000 0.000000 0.000000 0.000000 -0.000000 0.000000 0.000000 -0.000000 0.000000 0.000000 -0.000000 0.000000 0.000000 -0.000000 0.000000 0.000000 0.000000 0.000000 0.000000 0.000000 0.000000 0.000000 -0.065123 -0.010559 62.814239 -0.000000 0.000000 0.000000 -0.000000 0.000000 0.000000 0.000000 0.000000 0.000000 -0.065123 -0.010559 62.814239 -0.000000 0.000000 0.000000 4.845135 -3.038913 -7.155000 0.000000 0.000000 0.000000
21.656623 81.345753 322.505471 0.050440 -0.068120 -62.986951 -0.083597 -0.013997 62.986971 -0.000000 0.000000 0.000000 -0.565663 0.751261 -0.326040 0.000000 0.000000 0.000000 -0.000000 0.000000 0.000000 -0.000000 0.000000 0.000000 0.247409 0.937279 0.046791 1.869703 0.741907 -0.180844 0.000000 0.000000 0.000000 0.000000 0.000000 0.000000 -0.000000 0.000000 0.000000 -0.000000 0.000000 0.000000 -0.000000 0.000000 0.000000 -0.000000 0.000000 0.000000 0.000000 0.000000 0.000000 0.000000 0.000000 0.000000 -0.083597 -0.013997 62.986971 -0.000000 0.000000 0.000000 -0.000000 0.000000 0.000000 0.000000 0.000000 0.000000 -0.083597 -0.013997 62.986971 -0.000000 0.000000 0.000000 5.454931 -3.709754 -7.998716 0.000000 0.000000 0.000000
21.657263 81.367967 322.518008 0.060865 -0.081802 -63.173209 -0.100466 -0.017398 63.173237 -0.000000 0.000000 0.000000 -0.580690 0.864093 -0.402138 0.000000 0.000000 0.000000 -0.000000 0.000000 0.000000 -0.000000 0.000000 0.000000 0.201593 0.864218 0.031600 2.014323 1.067139 -0.225635 0.000000 0.000000 0.000000 0.000000 0.000000 0.000000 -0.000000 0.000000 0.000000 -0.000000 0.000000 0.000000 -0.000000 0.000000 0.000000 -0.000000 0.000000 0.000000 0.000000 0.000000 0.000000 0.000000 0.000000 0.000000 -0.100466 -0.017398 63.173237 -0.000000 0.000000 0.000000 -0.000000 0.000000 0.000000 0.000000 0.000000 0.000000 -0.100466 -0.017398 63.173237 -0.000000 0.000000 0.000000 5.443162 -4.042200 -7.858513 0.000000 0.000000 0.000000
21.655573 81.419399 322.526936 0.064643 -0.087212 -63.399342 -0.106926 -0.018750 63.399373 -0.000000 0.000000 0.000000 -0.454781 0.950074 -0.515484 0.000000 0.000000 0.000000 -0.000000 0.000000 0.000000 -0.000000 0.000000 0.000000 -0.000000 0.000000 0.000000 2.012692 2.199142 -0.329362 0.000000 0.000000 0.000000 0.000000 0.000000 0.000000 -0.000000 0.000000 0.000000 -0.000000 0.000000 0.000000 -0.000000 0.000000 0.000000 -0.000000 0.000000 0.000000 0.000000 0.000000 0.000000 0.000000 0.000000 0.000000 -0.106926 -0.018750 63.399373 -0.000000 0.000000 0.000000 -0.000000 0.000000 0.000000 0.000000 0.000000 0.000000 -1.013975 0.139270 63.381621 0.265159 -0.881705 0.020747 3.802923 -3.826536 -5.017406 0.000000 0.000000 0.000000
21.695385 81.434169 322.550319 0.125061 -0.112914 -63.652728 -0.156688 -0.061957 63.652767 -0.000000 0.000000 0.000000 -0.297708 1.027418 -0.635468 0.000000 0.000000 0.000000 -0.000000 0.000000 0.000000 -0.000000 0.000000 0.000000 -0.000000 0.000000 0.000000 2.574515 1.947429 -0.180521 0.000000 0.000000 0.000000 0.000000 0.000000 0.000000 -0.000000 0.000000 0.000000 -0.000000 0.000000 0.000000 -0.000000 0.000000 0.000000 -0.000000 0.000000 0.000000 0.000000 0.000000 0.000000 0.000000 0.000000 0.000000 -0.156688 -0.061957 63.652767 -0.000000 0.000000 0.000000 0.272647 0.572350 0.684235 0.000000 0.000000 0.000000 -0.925443 0.354275 63.667932 -0.032026 -0.873614 -0.013448 0.246880 -2.736071 0.719703 0.000000 0.000000 0.000000
21.685872 81.480410 322.566300 0.120968 -0.123688 -63.907011 -0.164287 -0.054237 63.907064 -0.000000 0.000000 0.000000 -0.194182 1.055246 -0.697836 0.000000 0.000000 0.000000 -0.000000 0.000000 0.000000 -0.000000 0.000000 0.000000 -0.000000 0.000000 0.000000 1.361014 2.259839 -0.432819 0.000000 0.000000 0.000000 0.000000 0.000000 0.000000 -0.000000 0.000000 0.000000 -0.000000 0.000000 0.000000 -0.000000 0.000000 0.000000 -0.000000 0.000000 0.000000 0.000000 0.000000 0.000000 0.000000 0.000000 0.000000 -0.164287 -0.054237 63.907064 -0.000000 0.000000 0.000000 -0.000000 0.000000 0.000000 0.000000 0.000000 0.000000 -1.217558 0.251378 63.900594 0.188960 -1.080311 0.010063 0.524713 -2.692419 0.226076 0.000000 0.000000 0.000000
21.634083 81.543318 322.570337 0.059000 -0.120337 -64.103807 -0.134021 -0.000519 64.103869 -0.000000 0.000000 0.000000 -0.133113 1.076921 -0.738531 0.000000 0.000000 0.000000 -0.000000 0.000000 0.000000 -0.000000 0.000000 0.000000 -0.000000 0.000000 0.000000 0.280347 2.944623 -0.762372 0.000000 0.000000 0.000000 0.000000 0.000000 0.000000 -0.000000 0.000000 0.000000 0.521588 -0.655199 0.062390 -0.520909 0.655739 -0.056427 -0.000000 0.000000 0.000000 0.000000 0.000000 0.000000 0.000000 0.000000 0.000000 -0.134021 -0.000519 64.103869 -0.000000 0.000000 0.000000 -0.134031 0.643863 0.756669 0.000000 0.000000 0.000000 -1.662639 0.084921 64.057042 0.592041 -1.411924 0.055248 2.667969 -2.181599 -3.667977 0.000000 0.000000 0.000000
21.558130 81.595674 322.564029 -0.031276 -0.095487 -64.196050 -0.072352 0.069722 64.196068 -0.000000 0.000000 0.000000 -0.177688 1.049986 -0.700693 0.000000 0.000000 0.000000 -0.000000 0.000000 0.000000 -0.000000 0.000000 0.000000 -0.593969 -0.569582 -0.229826 1.017052 3.331840 -0.471656 0.000000 0.000000 0.000000 0.000000 0.000000 0.000000 -0.000000 0.000000 0.000000 0.536860 -0.677754 0.067599 -0.536097 0.678357 -0.061250 -0.000000 0.000000 0.000000 0.000000 0.000000 0.000000 0.000000 0.000000 0.000000 -0.072352 0.069722 64.196068 -0.000000 0.000000 0.000000 -0.806544 1.152084 1.346379 0.000000 0.000000 0.000000 -2.063371 -0.084809 64.106521 1.008781 -1.723573 0.104459 4.026810 -2.826787 -5.790886 0.000000 0.000000 0.000000
21.506324 81.646887 322.575211 -0.082643 -0.094280 -64.296565 -0.049108 0.115356 64.296546 -0.000000 0.000000 0.000000 -0.280715 0.945004 -0.582155 0.000000 0.000000 0.000000 -0.000000 0.000000 0.000000 -0.000000 0.000000 0.000000 -1.235990 -1.007761 -0.493611 1.117415 4.057164 -0.359166 0.000000 0.000000 0.000000 0.000000 0.000000 0.000000 -0.000000 0.000000 0.000000 -0.000000 0.000000 0.000000 -0.000000 0.000000 0.000000 -0.000000 0.000000 0.000000 0.000000 0.000000 0.000000 0.000000 0.000000 0.000000 -0.049108 0.115356 64.296546 -0.000000 0.000000 0.000000 -1.582288 1.643908 1.929931 0.000000 0.000000 0.000000 -2.171545 -0.070525 64.200399 1.091456 -1.829868 0.114409 3.683318 -3.523627 -4.923099 0.000000 0.000000 0.000000
21.420903 81.699700 322.566465 -0.186779 -0.058977 -64.375230 0.027601 0.193915 64.375087 -0.000000 0.000000 0.000000 -0.457959 0.899291 -0.477195 0.000000 0.000000 0.000000 -0.000000 0.000000 0.000000 -0.000000 0.000000 0.000000 -1.828209 -1.059159 -0.758851 2.906653 3.128332 0.303814 0.000000 0.000000 0.000000 0.000000 0.000000 0.000000 -0.000000 0.000000 0.000000 -0.000000 0.000000 0.000000 -0.000000 0.000000 0.000000 -0.000000 0.000000 0.000000 0.000000 0.000000 0.000000 0.000000 0.000000 0.000000 0.027601 0.193915 64.375087 -0.000000 0.000000 0.000000 -2.145363 2.080925 2.462178 0.000000 0.000000 0.000000 -2.783424 -0.320124 64.216458 1.686341 -2.307342 0.189494 3.021519 -5.151243 -3.096268 0.000000 0.000000 0.000000
21.320535 81.742751 322.549140 -0.311812 -0.012330 -64.431179 0.123455 0.286597 64.430836 -0.000000 0.000000 0.000000 -0.546855 0.920736 -0.456975 0.000000 0.000000 0.000000 -0.000000 0.000000 0.000000 -0.000000 0.000000 0.000000 -2.192424 -1.180663 -0.917613 2.915419 3.208828 0.423568 0.000000 0.000000 0.000000 0.000000 0.000000 0.000000 -0.000000 0.000000 0.000000 -0.162519 0.686511 -0.473866 0.168203 -0.685141 0.475846 -0.000000 0.000000 0.000000 0.000000 0.000000 0.000000 0.000000 0.000000 0.000000 0.123455 0.286597 64.430836 -0.000000 0.000000 0.000000 -2.701478 2.445764 2.915702 0.000000 0.000000 0.000000 -3.030567 -0.370739 64.246009 1.963597 -2.554736 0.226299 6.911594 -6.377372 -9.693606 0.000000 0.000000 0.000000
21.266232 81.765319 322.540531 -0.366878 0.021148 -64.501928 0.177023 0.322040 64.501498 -0.000000 0.000000 0.000000 -0.636004 0.954089 -0.445296 0.000000 0.000000 0.000000 -0.000000 0.000000 0.000000 -0.000000 0.000000 0.000000 -1.948391 -0.895493 -0.821727 2.841666 2.492602 0.483151 0.000000 0.000000 0.000000 0.000000 0.000000 0.000000 -0.000000 0.000000 0.000000 -0.468189 1.267971 -0.685375 0.483438 -1.262237 0.695881 -0.000000 0.000000 0.000000 0.000000 0.000000 0.000000 0.000000 0.000000 0.000000 0.929235 0.720067 64.667447 -0.681572 0.509578 -0.169758 -3.034447 2.695996 3.231304 0.000000 0.000000 0.000000 -2.543247 0.077899 64.387009 0.973557 -0.994173 -0.455762 7.441213 -8.580221 -8.576803 0.000000 0.000000 0.000000
